<?xml version="1.0" encoding="utf-8"?>
<!-- Generator: Adobe Illustrator 23.0.0, SVG Export Plug-In . SVG Version: 6.00 Build 0)  -->
<svg version="1.1" id="svg_null" xmlns="http://www.w3.org/2000/svg" xmlns:xlink="http://www.w3.org/1999/xlink" x="0px" y="0px"
	 viewBox="0 0 425.2 184.3" style="enable-background:new 0 0 425.2 184.3;" xml:space="preserve">
<style type="text/css">
	.st1{fill-rule:evenodd;clip-rule:evenodd;fill:#B2EBF9;}
	.st2{fill-rule:evenodd;clip-rule:evenodd;fill:#AEA1EA;}
	.st3{fill-rule:evenodd;clip-rule:evenodd;fill:#8C54A1;}
	.st4{fill:none;}
	.st5{enable-background:new    ;}
</style>
<g id="root">
	<circle id="shape.accent" class="st1" cx="87.6" cy="127.1" r="50"/>
	<circle id="shape.secondary" class="st2" cx="47.6" cy="77.1" r="40"/>
	<circle id="shape.primary" class="st3" cx="92.6" cy="37.1" r="30"/>
	<g id="Group" transform="translate(101.000000, 230.000000)">
		<rect id="Rectangle-4" x="-37.4" y="-157.9" class="st4" width="354" height="74"/>
		<g class="st5">
			<path d="M3.2-141.7h-32.7v13.5h26.3v4.7h-26.3v13.5H3.2v4.6h-37.3v-40.9H3.2V-141.7z"/>
			<path d="M42.6-131.4v26.1H15.9c-3.8,0-6.9-3.1-6.9-6.9v-11.9h28.8v-7.3c0-1.2-1-2.2-2.2-2.2H9v-4.7h26.6
				C39.5-138.3,42.6-135.2,42.6-131.4z M37.9-119.5H13.7v7.3c0,1.2,1,2.2,2.2,2.2h22V-119.5z"/>
			<path d="M74.5-92.4H53.9v-4.7h20.6c1.2,0,2.2-1,2.2-2.2v-6.1h-22c-3.8,0-6.9-3.1-6.9-6.9v-19.2c0-3.8,3.1-6.9,6.9-6.9h19.8
				c3.9,0,6.9,3.1,6.9,6.9v32.1C81.3-95.4,78.3-92.4,74.5-92.4z M74.5-110c1.2,0,2.2-1,2.2-2.2v-19.2c0-1.2-1-2.2-2.2-2.2H54.7
				c-1.2,0-2.2,1-2.2,2.2v19.2c0,1.2,1,2.2,2.2,2.2H74.5z"/>
			<path d="M91.9-149.1v36.8c0,1.2,1,2.2,2.2,2.2h5.6v4.7h-5.6c-3.8,0-6.9-3.1-6.9-6.9v-36.8H91.9z"/>
			<path d="M137-131.4v11.9h-28.9v7.3c0,1.2,1,2.2,2.2,2.2H137v4.7h-26.7c-3.8,0-6.9-3.1-6.9-6.9v-19.2c0-3.8,3.1-6.9,6.9-6.9h19.8
				C134-138.3,137-135.2,137-131.4z M132.3-124.2v-7.3c0-1.2-1-2.2-2.2-2.2h-19.8c-1.2,0-2.2,1-2.2,2.2v7.3H132.3z"/>
			<path d="M176.4-146.3h4.6v34.1c0,3.8-3,6.8-6.8,6.8h-27.3c-3.8,0-6.8-3-6.8-6.8v-3.2h4.6v3.2c0,1.2,1,2.2,2.2,2.2h27.3
				c1.2,0,2.2-1,2.2-2.2V-146.3z"/>
			<path d="M220.7-138.3v26.1c0,3.8-3.1,6.9-6.9,6.9H194c-3.8,0-6.9-3.1-6.9-6.9v-26.1h4.7v26.1c0,1.2,1,2.2,2.2,2.2h19.8
				c1.2,0,2.3-1,2.3-2.2v-26.1H220.7z"/>
			<path d="M275.9-131.4v26.1h-4.6v-26.1c0-1.2-1-2.2-2.3-2.2h-13.7c-1.2,0-2.2,1-2.2,2.2v26.1h-4.7v-26.1c0-1.2-1-2.2-2.2-2.2
				h-13.7c-1.2,0-2.2,1-2.2,2.2v26.1h-4.7v-32.9H269C272.9-138.3,275.9-135.2,275.9-131.4z"/>
			<path d="M314.6-131.4v19.2c0,3.8-3.1,6.9-6.9,6.9h-22v13.1h-4.7v-46h26.7C311.6-138.3,314.6-135.2,314.6-131.4z M310-131.4
				c0-1.2-1-2.2-2.2-2.2H288c-1.2,0-2.3,1-2.3,2.2v19.2c0,1.2,1,2.2,2.3,2.2h19.8c1.2,0,2.2-1,2.2-2.2V-131.4z"/>
		</g>
	</g>
</g>
</svg>
