<?xml version="1.0" encoding="utf-8"?>
<!-- Generator: Adobe Illustrator 16.0.4, SVG Export Plug-In . SVG Version: 6.00 Build 0)  -->
<!DOCTYPE svg PUBLIC "-//W3C//DTD SVG 1.1//EN" "http://www.w3.org/Graphics/SVG/1.1/DTD/svg11.dtd">
<svg version="1.1" id="Calque_1" xmlns="http://www.w3.org/2000/svg" xmlns:xlink="http://www.w3.org/1999/xlink" x="0px" y="0px"
	 width="235px" height="53px" viewBox="0 0 235 53" enable-background="new 0 0 235 53" xml:space="preserve">
<g>
	<path fill="#22A7F0" d="M78.858,33.246c-1.768,0.807-3.804,1.211-6.11,1.211c-2.101,0-4.042-0.348-5.822-1.038
		c-1.781-0.69-3.324-1.671-4.63-2.938c-1.306-1.269-2.332-2.787-3.074-4.554c-0.743-1.77-1.114-3.715-1.114-5.842
		c0-2.177,0.377-4.15,1.133-5.918c0.755-1.768,1.799-3.272,3.132-4.516c1.332-1.242,2.895-2.196,4.688-2.862s3.728-1,5.803-1
		c1.921,0,3.811,0.34,5.668,1.019c1.856,0.679,3.362,1.671,4.515,2.978l-4.458,4.458c-0.614-0.845-1.422-1.473-2.421-1.883
		c-0.999-0.41-2.024-0.615-3.074-0.615c-1.153,0-2.209,0.211-3.17,0.634c-0.96,0.423-1.787,1.006-2.479,1.749
		c-0.692,0.743-1.229,1.621-1.614,2.632c-0.384,1.012-0.577,2.12-0.577,3.324c0,1.23,0.192,2.357,0.577,3.382
		c0.384,1.024,0.915,1.902,1.595,2.633c0.678,0.729,1.492,1.3,2.44,1.71c0.948,0.405,1.985,0.611,3.113,0.611
		c1.307,0,2.446-0.257,3.42-0.771c0.973-0.514,1.754-1.176,2.344-1.996l4.573,4.304C82.111,31.344,80.626,32.439,78.858,33.246z"/>
	<path fill="#22A7F0" d="M98.38,33.727V23.351c0-0.538-0.039-1.051-0.115-1.537c-0.077-0.485-0.225-0.915-0.442-1.287
		c-0.218-0.371-0.506-0.666-0.865-0.884c-0.359-0.217-0.82-0.327-1.383-0.327c-1.102,0-1.948,0.391-2.537,1.172
		c-0.59,0.782-0.884,1.75-0.884,2.902v10.336h-6.302V4.675h6.302V17.01h0.077c0.436-0.769,1.127-1.454,2.075-2.056
		c0.947-0.601,2.088-0.903,3.42-0.903c1.307,0,2.402,0.231,3.286,0.692c0.884,0.461,1.601,1.057,2.152,1.787
		c0.551,0.729,0.947,1.57,1.191,2.517c0.243,0.948,0.365,1.896,0.365,2.843v11.836H98.38L98.38,33.727z"/>
	<path fill="#22A7F0" d="M109.216,17.202c1.127-1.076,2.44-1.883,3.938-2.421c1.499-0.538,3.029-0.807,4.592-0.807
		c1.613,0,2.979,0.199,4.093,0.595c1.114,0.397,2.019,1.013,2.709,1.845c0.692,0.833,1.198,1.883,1.519,3.151
		c0.32,1.269,0.479,2.774,0.479,4.516v9.646h-5.764v-2.037h-0.116c-0.486,0.795-1.225,1.41-2.209,1.848
		c-0.987,0.438-2.056,0.652-3.209,0.652c-0.769,0-1.562-0.104-2.382-0.31c-0.82-0.204-1.57-0.538-2.248-0.999
		c-0.679-0.462-1.236-1.076-1.671-1.844c-0.438-0.77-0.653-1.717-0.653-2.846c0-1.382,0.377-2.5,1.133-3.343
		c0.755-0.845,1.729-1.498,2.92-1.96c1.191-0.461,2.517-0.768,3.978-0.92c1.46-0.155,2.882-0.232,4.266-0.232V21.43
		c0-0.949-0.333-1.647-0.999-2.096c-0.667-0.448-1.486-0.672-2.459-0.672c-0.897,0-1.762,0.192-2.594,0.577
		c-0.833,0.384-1.544,0.845-2.133,1.383L109.216,17.202z M120.783,25.389h-0.807c-0.691,0-1.393,0.031-2.097,0.094
		c-0.705,0.065-1.333,0.187-1.883,0.365c-0.551,0.181-1.005,0.442-1.364,0.79c-0.359,0.345-0.538,0.801-0.538,1.362
		c0,0.359,0.083,0.667,0.25,0.923c0.167,0.257,0.378,0.461,0.634,0.614c0.255,0.154,0.55,0.263,0.884,0.328
		c0.333,0.062,0.653,0.096,0.96,0.096c1.278,0,2.261-0.354,2.938-1.059c0.678-0.702,1.021-1.656,1.021-2.862L120.783,25.389
		L120.783,25.389z"/>
	<path fill="#22A7F0" d="M137.691,19.277v7.33c0,0.899,0.172,1.575,0.519,2.024c0.347,0.452,0.967,0.676,1.864,0.676
		c0.308,0,0.634-0.022,0.98-0.076c0.346-0.051,0.633-0.127,0.862-0.229l0.077,4.61c-0.438,0.152-0.987,0.287-1.653,0.404
		c-0.667,0.113-1.332,0.172-1.995,0.172c-1.281,0-2.357-0.16-3.229-0.48c-0.871-0.318-1.57-0.781-2.095-1.389
		c-0.524-0.603-0.902-1.32-1.136-2.155c-0.229-0.834-0.345-1.767-0.345-2.794v-8.09h-3.073V14.59h3.034V9.555h6.188v5.034h4.496
		v4.688H137.691z"/>
	<path fill="#22A7F0" d="M164.975,33.246c-1.767,0.807-3.803,1.211-6.106,1.211c-2.104,0-4.041-0.348-5.822-1.038
		c-1.778-0.69-3.321-1.671-4.629-2.938c-1.31-1.27-2.333-2.787-3.076-4.554c-0.741-1.77-1.112-3.715-1.112-5.842
		c0-2.177,0.377-4.15,1.135-5.918c0.755-1.768,1.799-3.272,3.132-4.516c1.331-1.242,2.896-2.196,4.688-2.862
		c1.791-0.666,3.727-1,5.801-1c1.922,0,3.812,0.34,5.668,1.019c1.855,0.679,3.363,1.671,4.518,2.978l-4.459,4.458
		c-0.613-0.845-1.422-1.473-2.421-1.883c-1-0.41-2.024-0.615-3.075-0.615c-1.152,0-2.208,0.211-3.169,0.634
		c-0.962,0.423-1.786,1.006-2.479,1.749c-0.688,0.743-1.229,1.621-1.61,2.632c-0.386,1.012-0.576,2.12-0.576,3.324
		c0,1.23,0.19,2.357,0.576,3.382c0.385,1.024,0.916,1.902,1.594,2.633c0.683,0.729,1.492,1.3,2.438,1.71
		c0.947,0.405,1.984,0.611,3.113,0.611c1.309,0,2.446-0.257,3.42-0.771c0.975-0.514,1.754-1.176,2.348-1.996l4.57,4.304
		C168.229,31.344,166.744,32.439,164.975,33.246z"/>
	<path fill="#22A7F0" d="M170.932,17.202c1.127-1.076,2.44-1.883,3.939-2.421c1.498-0.538,3.027-0.807,4.592-0.807
		c1.614,0,2.979,0.199,4.094,0.595c1.114,0.397,2.02,1.013,2.709,1.845c0.691,0.833,1.197,1.883,1.52,3.151
		c0.318,1.269,0.479,2.774,0.479,4.516v9.646h-5.765v-2.037h-0.116c-0.486,0.795-1.223,1.41-2.208,1.848
		c-0.987,0.438-2.057,0.652-3.21,0.652c-0.77,0-1.562-0.104-2.382-0.31c-0.819-0.204-1.569-0.538-2.248-0.999
		c-0.681-0.462-1.235-1.076-1.672-1.844c-0.437-0.77-0.653-1.717-0.653-2.846c0-1.382,0.379-2.5,1.135-3.343
		c0.754-0.845,1.729-1.498,2.92-1.96c1.19-0.461,2.52-0.768,3.979-0.92c1.461-0.155,2.883-0.232,4.269-0.232V21.43
		c0-0.949-0.334-1.647-1-2.096c-0.666-0.448-1.484-0.672-2.459-0.672c-0.896,0-1.764,0.192-2.596,0.577
		c-0.833,0.384-1.545,0.845-2.134,1.383L170.932,17.202z M182.499,25.389h-0.808c-0.691,0-1.393,0.031-2.096,0.094
		c-0.703,0.065-1.332,0.187-1.885,0.365c-0.551,0.181-1.005,0.442-1.361,0.79c-0.358,0.345-0.537,0.801-0.537,1.362
		c0,0.359,0.082,0.667,0.25,0.923c0.166,0.257,0.377,0.461,0.633,0.614c0.257,0.154,0.552,0.263,0.885,0.328
		c0.332,0.062,0.652,0.096,0.961,0.096c1.281,0,2.261-0.354,2.939-1.059c0.679-0.702,1.019-1.656,1.019-2.862V25.389L182.499,25.389
		z"/>
	<path fill="#22A7F0" d="M204.211,20.238c-0.514-0.487-1.113-0.896-1.807-1.23c-0.691-0.333-1.422-0.5-2.189-0.5
		c-0.59,0-1.134,0.115-1.634,0.346c-0.5,0.23-0.749,0.627-0.749,1.191c0,0.538,0.273,0.922,0.825,1.152
		c0.551,0.232,1.44,0.487,2.672,0.771c0.717,0.152,1.44,0.371,2.171,0.651c0.729,0.283,1.391,0.654,1.979,1.115
		c0.59,0.461,1.062,1.024,1.422,1.69c0.357,0.668,0.537,1.461,0.537,2.385c0,1.203-0.242,2.225-0.729,3.057
		c-0.486,0.83-1.121,1.504-1.902,2.017c-0.781,0.515-1.658,0.886-2.633,1.115c-0.974,0.229-1.945,0.346-2.92,0.346
		c-1.562,0-3.094-0.25-4.593-0.75c-1.498-0.499-2.748-1.233-3.746-2.209l3.535-3.729c0.563,0.615,1.255,1.131,2.075,1.537
		c0.816,0.41,1.688,0.615,2.613,0.615c0.512,0,1.018-0.119,1.518-0.365c0.5-0.24,0.748-0.672,0.748-1.284
		c0-0.591-0.307-1.025-0.922-1.308c-0.614-0.281-1.574-0.575-2.881-0.884c-0.668-0.153-1.332-0.357-2-0.614
		c-0.666-0.256-1.264-0.602-1.785-1.039c-0.525-0.434-0.955-0.972-1.287-1.614c-0.334-0.64-0.5-1.407-0.5-2.305
		c0-1.152,0.242-2.133,0.729-2.939c0.485-0.807,1.114-1.466,1.885-1.979c0.77-0.512,1.619-0.89,2.557-1.134
		c0.935-0.243,1.861-0.365,2.785-0.365c1.435,0,2.836,0.224,4.207,0.672c1.369,0.449,2.529,1.121,3.479,2.017L204.211,20.238z"/>
	<path fill="#22A7F0" d="M217.93,19.277v7.33c0,0.899,0.172,1.575,0.521,2.024c0.346,0.452,0.966,0.676,1.861,0.676
		c0.31,0,0.637-0.022,0.979-0.076c0.347-0.051,0.634-0.127,0.864-0.229l0.076,4.61c-0.438,0.152-0.986,0.287-1.651,0.404
		c-0.667,0.113-1.332,0.172-1.998,0.172c-1.282,0-2.358-0.16-3.229-0.48c-0.871-0.318-1.566-0.781-2.094-1.389
		c-0.525-0.603-0.902-1.32-1.135-2.155c-0.23-0.834-0.346-1.767-0.346-2.794v-8.09h-3.074V14.59h3.036V9.555h6.188v5.034h4.493
		v4.688H217.93z"/>
</g>
<path fill="#22A7F0" d="M18.115,12.063c6.794,0,12.322,5.527,12.322,12.322c0,6.741-5.481,12.266-12.22,12.318h-5.995l0.548-0.811
	l-2.364-1.898c-2.931-2.354-4.612-5.855-4.612-9.609C5.793,17.59,11.321,12.063,18.115,12.063 M18.115,8.769
	C9.491,8.769,2.5,15.76,2.5,24.385c0,4.924,2.28,9.314,5.843,12.178C6.492,39.299,3.007,40,3.007,40l15.221-0.002
	C26.8,39.938,33.73,32.971,33.73,24.385C33.73,15.76,26.739,8.769,18.115,8.769L18.115,8.769z"/>
<path fill="#22A7F0" d="M18.115,12.063c6.794,0,12.322,5.527,12.322,12.322c0,6.741-5.481,12.266-12.22,12.318h-5.995l0.548-0.811
	l-2.364-1.898c-2.931-2.354-4.612-5.855-4.612-9.609C5.793,17.59,11.321,12.063,18.115,12.063 M18.115,8.769
	C9.491,8.769,2.5,15.76,2.5,24.385c0,4.924,2.28,9.314,5.843,12.178C6.492,39.299,3.007,40,3.007,40l15.221-0.002
	C26.8,39.938,33.73,32.971,33.73,24.385C33.73,15.76,26.739,8.769,18.115,8.769L18.115,8.769z"/>
<rect x="10.521" y="18.574" fill="#22A7F0" width="15.188" height="1.66"/>
<rect x="10.521" y="21.917" fill="#22A7F0" width="15.188" height="1.661"/>
<rect x="10.521" y="25.263" fill="#22A7F0" width="15.188" height="1.661"/>
<rect x="10.521" y="28.609" fill="#22A7F0" width="15.188" height="1.66"/>
<g>
	<path fill="#FFFFFF" d="M35.884,18.836c-0.007-0.024-0.016-0.049-0.023-0.073C35.868,18.788,35.876,18.812,35.884,18.836z"/>
	<path fill="#FFFFFF" d="M24.869,7.181c-0.124-0.047-0.248-0.092-0.372-0.136C24.622,7.089,24.746,7.134,24.869,7.181z"/>
	<path fill="#FFFFFF" d="M25.585,7.467c-0.095-0.04-0.189-0.079-0.284-0.118C25.396,7.388,25.49,7.427,25.585,7.467z"/>
	<path fill="#FFFFFF" d="M25.219,7.316c-0.108-0.043-0.217-0.086-0.327-0.127C25.001,7.23,25.11,7.273,25.219,7.316z"/>
	<path fill="#FFFFFF" d="M26.002,7.65c-0.115-0.053-0.23-0.104-0.347-0.154C25.772,7.547,25.888,7.597,26.002,7.65z"/>
	<path fill="#FFFFFF" d="M27.092,8.189c-0.105-0.056-0.211-0.112-0.317-0.166C26.881,8.078,26.987,8.133,27.092,8.189z"/>
	<path fill="#FFFFFF" d="M27.416,8.369c-0.099-0.056-0.198-0.111-0.298-0.165C27.218,8.257,27.317,8.312,27.416,8.369z"/>
	<path fill="#FFFFFF" d="M26.336,7.807c-0.103-0.05-0.206-0.099-0.31-0.146C26.131,7.708,26.233,7.757,26.336,7.807z"/>
	<path fill="#FFFFFF" d="M26.678,7.974c-0.082-0.041-0.163-0.082-0.246-0.121C26.515,7.893,26.597,7.934,26.678,7.974z"/>
	<path fill="#FFFFFF" d="M21.647,6.3c-0.116-0.02-0.234-0.04-0.351-0.058C21.414,6.261,21.531,6.28,21.647,6.3z"/>
	<path fill="#FFFFFF" d="M22.874,6.561c-0.117-0.029-0.233-0.057-0.351-0.083C22.641,6.504,22.757,6.532,22.874,6.561z"/>
	<path fill="#FFFFFF" d="M22.49,6.469c-0.261-0.058-0.523-0.112-0.788-0.159C21.967,6.357,22.229,6.411,22.49,6.469z"/>
	<path fill="#FFFFFF" d="M24.064,6.9c-0.113-0.037-0.228-0.072-0.342-0.106C23.836,6.828,23.951,6.863,24.064,6.9z"/>
	<path fill="#FFFFFF" d="M24.461,7.033c-0.109-0.038-0.219-0.075-0.33-0.111C24.243,6.958,24.352,6.995,24.461,7.033z"/>
	<path fill="#FFFFFF" d="M23.698,6.786c-0.253-0.075-0.509-0.146-0.767-0.211C23.188,6.64,23.444,6.71,23.698,6.786z"/>
	<path fill="#FFFFFF" d="M28.087,8.767c-0.079-0.049-0.157-0.097-0.236-0.145C27.93,8.67,28.009,8.718,28.087,8.767z"/>
	<path fill="#FFFFFF" d="M32.454,12.559c-0.006-0.006-0.012-0.013-0.017-0.021C32.442,12.546,32.448,12.553,32.454,12.559z"/>
	<path fill="#FFFFFF" d="M32.094,12.142c-0.015-0.016-0.03-0.033-0.045-0.049C32.064,12.109,32.079,12.126,32.094,12.142z"/>
	<path fill="#FFFFFF" d="M36.622,22.51c-0.011-0.113-0.023-0.228-0.036-0.339C36.599,22.282,36.611,22.396,36.622,22.51z"/>
	<path fill="#FFFFFF" d="M34.701,15.945c-0.011-0.021-0.021-0.041-0.031-0.061C34.68,15.904,34.69,15.924,34.701,15.945z"/>
	<path fill="#FFFFFF" d="M32.803,12.99c-0.011-0.013-0.021-0.027-0.033-0.041C32.782,12.962,32.792,12.977,32.803,12.99z"/>
	<path fill="#FFFFFF" d="M34.916,16.377c-0.013-0.029-0.027-0.058-0.042-0.086C34.889,16.32,34.902,16.349,34.916,16.377z"/>
	<path fill="#FFFFFF" d="M29.737,9.924c-0.06-0.047-0.12-0.093-0.18-0.139C29.617,9.831,29.677,9.877,29.737,9.924z"/>
	<path fill="#FFFFFF" d="M28.454,9c-0.096-0.063-0.194-0.125-0.292-0.188C28.26,8.875,28.358,8.938,28.454,9z"/>
	<path fill="#FFFFFF" d="M36.706,24.262c0-0.571-0.027-1.133-0.079-1.69C36.678,23.13,36.705,23.693,36.706,24.262
		c-0.001,2.468-0.493,4.82-1.381,6.966l13.065,0.004l0,0l-13.063-0.004C36.213,29.082,36.706,26.729,36.706,24.262z"/>
	<path fill="#FFFFFF" d="M27.736,8.554c-0.07-0.042-0.141-0.083-0.212-0.124C27.596,8.472,27.666,8.513,27.736,8.554z"/>
	<path fill="#FFFFFF" d="M30.949,0.173c-4.111,0.617-7.695,2.838-10.101,6.004c0.134,0.018,0.268,0.037,0.4,0.057
		c-0.133-0.021-0.266-0.04-0.399-0.057C23.254,3.011,26.838,0.79,30.949,0.173z"/>
	<path fill="#FFFFFF" d="M28.757,9.204c-0.063-0.043-0.125-0.085-0.189-0.127C28.632,9.119,28.694,9.161,28.757,9.204z"/>
	<path fill="#FFFFFF" d="M29.075,9.427c-0.065-0.046-0.13-0.092-0.196-0.139C28.945,9.334,29.01,9.38,29.075,9.427z"/>
	<path fill="#FFFFFF" d="M29.449,9.702c-0.091-0.069-0.182-0.137-0.273-0.203C29.267,9.565,29.358,9.633,29.449,9.702z"/>
	<path fill="#22A7F0" d="M43.056,27.794c3.562-2.863,5.843-7.254,5.843-12.179C48.898,6.991,41.908,0,33.283,0
		c-0.793,0-1.573,0.06-2.334,0.173c-4.11,0.617-7.695,2.838-10.1,6.004c0.134,0.017,0.267,0.037,0.399,0.057
		c0.016,0.002,0.033,0.005,0.048,0.008C21.413,6.26,21.531,6.28,21.647,6.3c0.019,0.003,0.037,0.006,0.055,0.01
		c0.265,0.047,0.527,0.101,0.788,0.159c0.011,0.002,0.021,0.005,0.033,0.008c0.118,0.027,0.234,0.055,0.351,0.083
		c0.019,0.005,0.038,0.009,0.057,0.014c0.257,0.065,0.513,0.136,0.767,0.211c0.008,0.002,0.016,0.005,0.024,0.008
		c0.114,0.035,0.229,0.069,0.342,0.106c0.023,0.008,0.045,0.015,0.068,0.022c0.111,0.036,0.22,0.073,0.33,0.111
		c0.012,0.004,0.024,0.008,0.036,0.012c0.125,0.044,0.249,0.089,0.372,0.136c0.007,0.002,0.015,0.005,0.023,0.008
		c0.109,0.041,0.218,0.084,0.327,0.127c0.027,0.011,0.055,0.022,0.082,0.033c0.095,0.039,0.189,0.078,0.284,0.118
		c0.023,0.01,0.047,0.02,0.071,0.03c0.116,0.05,0.232,0.101,0.347,0.154c0.009,0.003,0.017,0.007,0.024,0.011
		c0.104,0.047,0.207,0.096,0.31,0.146c0.032,0.015,0.065,0.031,0.096,0.046c0.083,0.04,0.164,0.081,0.246,0.121
		c0.032,0.016,0.064,0.033,0.097,0.049c0.106,0.054,0.212,0.11,0.317,0.166c0.009,0.005,0.017,0.01,0.026,0.014
		c0.1,0.054,0.2,0.109,0.298,0.165c0.036,0.021,0.072,0.041,0.108,0.062c0.071,0.042,0.142,0.083,0.212,0.124
		c0.038,0.022,0.077,0.045,0.115,0.067c0.079,0.048,0.158,0.096,0.236,0.145c0.024,0.016,0.05,0.031,0.075,0.046
		C28.26,8.875,28.358,8.938,28.454,9c0.038,0.026,0.076,0.051,0.114,0.076c0.063,0.042,0.126,0.084,0.189,0.127
		c0.041,0.028,0.082,0.056,0.122,0.084c0.066,0.046,0.131,0.092,0.196,0.139c0.034,0.024,0.067,0.047,0.101,0.072
		c0.092,0.066,0.183,0.134,0.273,0.203c0.036,0.027,0.072,0.055,0.108,0.083c0.06,0.046,0.12,0.092,0.18,0.139
		c0.04,0.031,0.078,0.062,0.117,0.093c0.02,0.016,0.04,0.032,0.06,0.048h11.168v1.661h-9.371c0.015,0.016,0.029,0.032,0.044,0.048
		c0.099,0.105,0.198,0.212,0.294,0.32c0.015,0.017,0.03,0.033,0.045,0.049c0.116,0.131,0.23,0.263,0.343,0.396
		c0.005,0.007,0.011,0.014,0.017,0.021c0.107,0.128,0.213,0.259,0.316,0.39c0.011,0.014,0.022,0.028,0.033,0.041
		c0.108,0.137,0.215,0.277,0.319,0.417h0.001h7.959v1.66H34.22c0.003,0.005,0.006,0.011,0.01,0.016c0.153,0.263,0.3,0.53,0.44,0.801
		c0.01,0.02,0.02,0.04,0.031,0.061c0.059,0.115,0.117,0.23,0.173,0.346c0.015,0.029,0.028,0.058,0.042,0.086
		c0.052,0.108,0.104,0.218,0.154,0.329c0.008,0.016,0.016,0.032,0.023,0.048h5.99v1.661h-5.335c0.002,0.006,0.004,0.011,0.006,0.017
		c0.037,0.11,0.073,0.221,0.107,0.332c0.008,0.024,0.016,0.049,0.023,0.073c0.128,0.412,0.242,0.83,0.341,1.253
		c0.001,0.003,0.002,0.008,0.003,0.011h4.854v1.661h-4.548c0.016,0.114,0.029,0.227,0.044,0.34c0.002,0.023,0.005,0.045,0.007,0.069
		c0.013,0.111,0.025,0.226,0.036,0.339c0.002,0.022,0.004,0.042,0.005,0.062c0.052,0.558,0.079,1.119,0.079,1.69
		c0,2.468-0.493,4.82-1.381,6.966l13.063,0.004h0.002C48.391,31.23,44.906,30.529,43.056,27.794z"/>
</g>
<g enable-background="new    ">
	<path fill="#22A7F0" d="M208.898,49.23c0,0.599-0.119,1.102-0.355,1.509s-0.552,0.733-0.943,0.979
		c-0.393,0.248-0.838,0.428-1.338,0.534s-1.014,0.162-1.539,0.162h-4.358V41.469h4.358c0.424,0,0.855,0.045,1.299,0.131
		c0.443,0.088,0.848,0.238,1.207,0.449c0.36,0.211,0.654,0.497,0.881,0.857c0.229,0.361,0.343,0.82,0.343,1.377
		c0,0.607-0.165,1.111-0.495,1.508s-0.766,0.684-1.299,0.857v0.031c0.309,0.051,0.601,0.146,0.871,0.284
		c0.273,0.142,0.513,0.317,0.714,0.534c0.2,0.216,0.358,0.469,0.479,0.757C208.839,48.546,208.898,48.871,208.898,49.23z
		 M205.898,44.639c0-0.371-0.145-0.642-0.426-0.812c-0.283-0.171-0.703-0.255-1.262-0.255h-1.299v2.257h1.422
		c0.495,0,0.879-0.101,1.15-0.302C205.762,45.326,205.898,45.031,205.898,44.639z M206.254,48.984c0-0.455-0.17-0.771-0.51-0.943
		c-0.342-0.176-0.795-0.264-1.361-0.264h-1.469v2.506h1.484c0.205,0,0.42-0.02,0.642-0.055s0.423-0.103,0.603-0.193
		c0.183-0.094,0.328-0.225,0.441-0.395S206.254,49.252,206.254,48.984z"/>
	<path fill="#22A7F0" d="M218.146,48.659c0,0.104,0,0.206,0,0.31c0,0.104-0.006,0.201-0.018,0.295h-5.582
		c0.021,0.215,0.085,0.411,0.193,0.586c0.105,0.176,0.246,0.328,0.417,0.457c0.17,0.129,0.358,0.229,0.571,0.301
		c0.211,0.072,0.432,0.108,0.656,0.108c0.402,0,0.742-0.073,1.021-0.224c0.279-0.151,0.505-0.344,0.681-0.58l1.763,1.113
		c-0.359,0.523-0.838,0.931-1.431,1.214c-0.593,0.282-1.28,0.425-2.063,0.425c-0.578,0-1.123-0.09-1.64-0.271
		c-0.516-0.18-0.967-0.441-1.354-0.787c-0.387-0.347-0.688-0.771-0.91-1.275c-0.223-0.505-0.332-1.082-0.332-1.73
		c0-0.629,0.105-1.197,0.322-1.709c0.219-0.512,0.513-0.943,0.884-1.3c0.37-0.356,0.809-0.631,1.313-0.825
		c0.504-0.197,1.051-0.295,1.639-0.295c0.566,0,1.089,0.096,1.562,0.285c0.477,0.189,0.883,0.467,1.223,0.827
		c0.342,0.36,0.604,0.799,0.797,1.313C218.05,47.412,218.146,48,218.146,48.659z M215.811,47.686c0-0.4-0.127-0.748-0.379-1.035
		c-0.252-0.289-0.632-0.435-1.137-0.435c-0.247,0-0.475,0.039-0.681,0.116s-0.388,0.184-0.541,0.316
		c-0.154,0.134-0.278,0.291-0.371,0.473c-0.093,0.18-0.146,0.368-0.154,0.564H215.811L215.811,47.686z"/>
	<path fill="#22A7F0" d="M222.475,46.604v2.948c0,0.362,0.069,0.634,0.209,0.815c0.141,0.181,0.391,0.271,0.75,0.271
		c0.123,0,0.256-0.012,0.396-0.031c0.139-0.021,0.255-0.051,0.35-0.094l0.029,1.854c-0.176,0.062-0.396,0.114-0.665,0.163
		c-0.271,0.046-0.536,0.068-0.805,0.068c-0.517,0-0.948-0.063-1.3-0.192c-0.352-0.132-0.633-0.315-0.844-0.56
		s-0.363-0.533-0.455-0.869C220.047,50.645,220,50.27,220,49.857v-3.256h-1.236v-1.888h1.223v-2.024h2.488v2.025h1.812v1.887h-1.812
		V46.604L222.475,46.604z"/>
	<path fill="#22A7F0" d="M225.367,45.768c0.453-0.434,0.98-0.758,1.585-0.975c0.603-0.217,1.219-0.324,1.848-0.324
		c0.649,0,1.198,0.08,1.646,0.24c0.449,0.159,0.812,0.406,1.093,0.741c0.276,0.336,0.479,0.758,0.608,1.269
		c0.129,0.51,0.193,1.116,0.193,1.816v3.882h-2.318v-0.819h-0.047c-0.195,0.319-0.492,0.566-0.89,0.742s-0.827,0.264-1.291,0.264
		c-0.31,0-0.629-0.041-0.959-0.125c-0.33-0.082-0.632-0.215-0.903-0.399c-0.272-0.187-0.498-0.435-0.674-0.742
		c-0.176-0.312-0.263-0.69-0.263-1.146c0-0.558,0.151-1.006,0.456-1.346c0.304-0.341,0.695-0.604,1.175-0.789
		c0.479-0.185,1.013-0.31,1.601-0.371c0.588-0.061,1.16-0.093,1.717-0.093v-0.124c0-0.382-0.135-0.662-0.4-0.843
		c-0.27-0.181-0.6-0.271-0.988-0.271c-0.361,0-0.709,0.076-1.045,0.229c-0.335,0.155-0.619,0.341-0.857,0.558L225.367,45.768z
		 M230.021,49.062h-0.326c-0.277,0-0.56,0.013-0.842,0.037c-0.283,0.025-0.537,0.074-0.758,0.146
		c-0.224,0.07-0.404,0.178-0.551,0.314c-0.146,0.142-0.216,0.323-0.216,0.551c0,0.146,0.032,0.269,0.103,0.371
		c0.064,0.104,0.149,0.187,0.254,0.246c0.104,0.062,0.223,0.105,0.354,0.133c0.134,0.025,0.265,0.037,0.387,0.037
		c0.517,0,0.909-0.142,1.185-0.424c0.272-0.283,0.41-0.668,0.41-1.151V49.062z"/>
</g>
</svg>
